<?xml version="1.0" encoding="UTF-8" standalone="no"?>
<!DOCTYPE svg PUBLIC "-//W3C//DTD SVG 1.1//EN"
 "http://www.w3.org/Graphics/SVG/1.1/DTD/svg11.dtd">
<!-- Generated by graphviz version 12.2.0 (20241103.1931)
 -->
<!-- Pages: 1 -->
<svg width="1084pt" height="1208pt"
 viewBox="0.00 0.00 1084.00 1208.00" xmlns="http://www.w3.org/2000/svg" xmlns:xlink="http://www.w3.org/1999/xlink">
<g id="graph0" class="graph" transform="scale(1 1) rotate(0) translate(144 1064)">
<polygon fill="white" stroke="none" points="-144,144 -144,-1064 940,-1064 940,144 -144,144"/>
<g id="clust1" class="cluster">
<title>cluster_JP700001&#45;1</title>
<path fill="#e5f5fd" stroke="#aeb6be" d="M20,-8C20,-8 466.4,-8 466.4,-8 472.4,-8 478.4,-14 478.4,-20 478.4,-20 478.4,-216 478.4,-216 478.4,-222 472.4,-228 466.4,-228 466.4,-228 20,-228 20,-228 14,-228 8,-222 8,-216 8,-216 8,-20 8,-20 8,-14 14,-8 20,-8"/>
<text text-anchor="middle" x="47.88" y="-212.6" font-family="Sans-Serif" font-size="12.00" fill="#2d3436">JP700001&#45;1</text>
</g>
<g id="clust2" class="cluster">
<title>cluster_JP700001&#45;2</title>
<path fill="#e5f5fd" stroke="#aeb6be" d="M20,-236C20,-236 466.4,-236 466.4,-236 472.4,-236 478.4,-242 478.4,-248 478.4,-248 478.4,-444 478.4,-444 478.4,-450 472.4,-456 466.4,-456 466.4,-456 20,-456 20,-456 14,-456 8,-450 8,-444 8,-444 8,-248 8,-248 8,-242 14,-236 20,-236"/>
<text text-anchor="middle" x="47.88" y="-440.6" font-family="Sans-Serif" font-size="12.00" fill="#2d3436">JP700001&#45;2</text>
</g>
<g id="clust3" class="cluster">
<title>cluster_JP700001&#45;3</title>
<path fill="#e5f5fd" stroke="#aeb6be" d="M20,-464C20,-464 776,-464 776,-464 782,-464 788,-470 788,-476 788,-476 788,-672 788,-672 788,-678 782,-684 776,-684 776,-684 20,-684 20,-684 14,-684 8,-678 8,-672 8,-672 8,-476 8,-476 8,-470 14,-464 20,-464"/>
<text text-anchor="middle" x="47.88" y="-668.6" font-family="Sans-Serif" font-size="12.00" fill="#2d3436">JP700001&#45;3</text>
</g>
<g id="clust4" class="cluster">
<title>cluster_JP700001&#45;4</title>
<path fill="#e5f5fd" stroke="#aeb6be" d="M20,-692C20,-692 311.6,-692 311.6,-692 317.6,-692 323.6,-698 323.6,-704 323.6,-704 323.6,-900 323.6,-900 323.6,-906 317.6,-912 311.6,-912 311.6,-912 20,-912 20,-912 14,-912 8,-906 8,-900 8,-900 8,-704 8,-704 8,-698 14,-692 20,-692"/>
<text text-anchor="middle" x="47.88" y="-896.6" font-family="Sans-Serif" font-size="12.00" fill="#2d3436">JP700001&#45;4</text>
</g>
<!-- 1054e86b4d1140a599a49a8b87d8d785 -->
<g id="node1" class="node">
<title>1054e86b4d1140a599a49a8b87d8d785</title>
<image xlink:href="C:\Python312\Lib\site-packages\resources/aws/analytics\glue.png" width="100.8px" height="100.8px" preserveAspectRatio="xMinYMin meet" x="38" y="-156.4"/>
<text text-anchor="middle" x="88.4" y="-41.75" font-family="Sans-Serif" font-size="13.00" fill="#2d3436">JP7G001G</text>
</g>
<!-- daa340884d1d446f9314af377c497969 -->
<g id="node2" class="node">
<title>daa340884d1d446f9314af377c497969</title>
<image xlink:href="C:\Python312\Lib\site-packages\resources/aws/analytics\glue.png" width="100.8px" height="100.8px" preserveAspectRatio="xMinYMin meet" x="192.8" y="-156.4"/>
<text text-anchor="middle" x="243.2" y="-41.75" font-family="Sans-Serif" font-size="13.00" fill="#2d3436">JP7F002G</text>
</g>
<!-- 1054e86b4d1140a599a49a8b87d8d785&#45;&gt;daa340884d1d446f9314af377c497969 -->
<g id="edge1" class="edge">
<title>1054e86b4d1140a599a49a8b87d8d785&#45;&gt;daa340884d1d446f9314af377c497969</title>
<path fill="none" stroke="#7b8894" d="M138.66,-106C156.05,-106 175.54,-106 192.93,-106"/>
</g>
<!-- e839592467484cbdb6c7c7916d416067 -->
<g id="node3" class="node">
<title>e839592467484cbdb6c7c7916d416067</title>
<image xlink:href="C:\Python312\Lib\site-packages\resources/aws/compute\lambda.png" width="100.8px" height="100.8px" preserveAspectRatio="xMinYMin meet" x="347.6" y="-156.4"/>
<text text-anchor="middle" x="398" y="-41.75" font-family="Sans-Serif" font-size="13.00" fill="#2d3436">JP7S001G</text>
</g>
<!-- daa340884d1d446f9314af377c497969&#45;&gt;e839592467484cbdb6c7c7916d416067 -->
<g id="edge2" class="edge">
<title>daa340884d1d446f9314af377c497969&#45;&gt;e839592467484cbdb6c7c7916d416067</title>
<path fill="none" stroke="#7b8894" d="M293.46,-106C310.85,-106 330.34,-106 347.73,-106"/>
</g>
<!-- 168eeebe5d3249168ccdd2fa5845552b -->
<g id="node4" class="node">
<title>168eeebe5d3249168ccdd2fa5845552b</title>
<image xlink:href="C:\Python312\Lib\site-packages\resources/aws/analytics\glue.png" width="100.8px" height="100.8px" preserveAspectRatio="xMinYMin meet" x="38" y="-384.4"/>
<text text-anchor="middle" x="88.4" y="-269.75" font-family="Sans-Serif" font-size="13.00" fill="#2d3436">JP7G003G</text>
</g>
<!-- 0dfdff3db38d44c0ae3da4362a3ca4fe -->
<g id="node5" class="node">
<title>0dfdff3db38d44c0ae3da4362a3ca4fe</title>
<image xlink:href="C:\Python312\Lib\site-packages\resources/aws/analytics\glue.png" width="100.8px" height="100.8px" preserveAspectRatio="xMinYMin meet" x="192.8" y="-384.4"/>
<text text-anchor="middle" x="243.2" y="-269.75" font-family="Sans-Serif" font-size="13.00" fill="#2d3436">JP7G004G</text>
</g>
<!-- 168eeebe5d3249168ccdd2fa5845552b&#45;&gt;0dfdff3db38d44c0ae3da4362a3ca4fe -->
<g id="edge3" class="edge">
<title>168eeebe5d3249168ccdd2fa5845552b&#45;&gt;0dfdff3db38d44c0ae3da4362a3ca4fe</title>
<path fill="none" stroke="#7b8894" d="M138.66,-334C156.05,-334 175.54,-334 192.93,-334"/>
</g>
<!-- 5a3c340d29624c2da5486ae5bab287e8 -->
<g id="node6" class="node">
<title>5a3c340d29624c2da5486ae5bab287e8</title>
<image xlink:href="C:\Python312\Lib\site-packages\resources/aws/compute\lambda.png" width="100.8px" height="100.8px" preserveAspectRatio="xMinYMin meet" x="347.6" y="-384.4"/>
<text text-anchor="middle" x="398" y="-269.75" font-family="Sans-Serif" font-size="13.00" fill="#2d3436">JP7S002G</text>
</g>
<!-- 0dfdff3db38d44c0ae3da4362a3ca4fe&#45;&gt;5a3c340d29624c2da5486ae5bab287e8 -->
<g id="edge4" class="edge">
<title>0dfdff3db38d44c0ae3da4362a3ca4fe&#45;&gt;5a3c340d29624c2da5486ae5bab287e8</title>
<path fill="none" stroke="#7b8894" d="M293.46,-334C310.85,-334 330.34,-334 347.73,-334"/>
</g>
<!-- 340656053b744b74956a24dc8a700373 -->
<g id="node7" class="node">
<title>340656053b744b74956a24dc8a700373</title>
<image xlink:href="C:\Python312\Lib\site-packages\resources/aws/analytics\glue.png" width="100.8px" height="100.8px" preserveAspectRatio="xMinYMin meet" x="38" y="-612.4"/>
<text text-anchor="middle" x="88.4" y="-497.75" font-family="Sans-Serif" font-size="13.00" fill="#2d3436">JP7G005G</text>
</g>
<!-- edd61be13ea24d5a8dbb62b792854fb9 -->
<g id="node8" class="node">
<title>edd61be13ea24d5a8dbb62b792854fb9</title>
<image xlink:href="C:\Python312\Lib\site-packages\resources/aws/analytics\glue.png" width="100.8px" height="100.8px" preserveAspectRatio="xMinYMin meet" x="192.8" y="-612.4"/>
<text text-anchor="middle" x="243.2" y="-497.75" font-family="Sans-Serif" font-size="13.00" fill="#2d3436">JP7G006G</text>
</g>
<!-- 340656053b744b74956a24dc8a700373&#45;&gt;edd61be13ea24d5a8dbb62b792854fb9 -->
<g id="edge5" class="edge">
<title>340656053b744b74956a24dc8a700373&#45;&gt;edd61be13ea24d5a8dbb62b792854fb9</title>
<path fill="none" stroke="#7b8894" d="M138.66,-562C156.05,-562 175.54,-562 192.93,-562"/>
</g>
<!-- 4f6196f324d748209294179409ac2349 -->
<g id="node9" class="node">
<title>4f6196f324d748209294179409ac2349</title>
<image xlink:href="C:\Python312\Lib\site-packages\resources/aws/compute\lambda.png" width="100.8px" height="100.8px" preserveAspectRatio="xMinYMin meet" x="347.6" y="-612.4"/>
<text text-anchor="middle" x="398" y="-497.75" font-family="Sans-Serif" font-size="13.00" fill="#2d3436">JP7S003G</text>
</g>
<!-- edd61be13ea24d5a8dbb62b792854fb9&#45;&gt;4f6196f324d748209294179409ac2349 -->
<g id="edge6" class="edge">
<title>edd61be13ea24d5a8dbb62b792854fb9&#45;&gt;4f6196f324d748209294179409ac2349</title>
<path fill="none" stroke="#7b8894" d="M293.46,-562C310.85,-562 330.34,-562 347.73,-562"/>
</g>
<!-- 6e36d7e943df4c429a0ba2b8e77e69bb -->
<g id="node10" class="node">
<title>6e36d7e943df4c429a0ba2b8e77e69bb</title>
<image xlink:href="C:\Python312\Lib\site-packages\resources/aws/compute\lambda.png" width="100.8px" height="100.8px" preserveAspectRatio="xMinYMin meet" x="502.4" y="-612.4"/>
<text text-anchor="middle" x="552.8" y="-497.75" font-family="Sans-Serif" font-size="13.00" fill="#2d3436">JP7S004G</text>
</g>
<!-- 4f6196f324d748209294179409ac2349&#45;&gt;6e36d7e943df4c429a0ba2b8e77e69bb -->
<g id="edge7" class="edge">
<title>4f6196f324d748209294179409ac2349&#45;&gt;6e36d7e943df4c429a0ba2b8e77e69bb</title>
<path fill="none" stroke="#7b8894" d="M448.26,-562C465.65,-562 485.14,-562 502.53,-562"/>
</g>
<!-- cba42d5280d5405b80136a652d985516 -->
<g id="node11" class="node">
<title>cba42d5280d5405b80136a652d985516</title>
<image xlink:href="C:\Python312\Lib\site-packages\resources/aws/compute\lambda.png" width="100.8px" height="100.8px" preserveAspectRatio="xMinYMin meet" x="657.2" y="-612.4"/>
<text text-anchor="middle" x="707.6" y="-497.75" font-family="Sans-Serif" font-size="13.00" fill="#2d3436">JP7S005G</text>
</g>
<!-- 6e36d7e943df4c429a0ba2b8e77e69bb&#45;&gt;cba42d5280d5405b80136a652d985516 -->
<g id="edge8" class="edge">
<title>6e36d7e943df4c429a0ba2b8e77e69bb&#45;&gt;cba42d5280d5405b80136a652d985516</title>
<path fill="none" stroke="#7b8894" d="M603.06,-562C620.45,-562 639.94,-562 657.33,-562"/>
</g>
<!-- 9b7ca0b3b9f04dbdbea21902c008ee21 -->
<g id="node12" class="node">
<title>9b7ca0b3b9f04dbdbea21902c008ee21</title>
<image xlink:href="C:\Python312\Lib\site-packages\resources/aws/compute\lambda.png" width="100.8px" height="100.8px" preserveAspectRatio="xMinYMin meet" x="38" y="-840.4"/>
<text text-anchor="middle" x="88.4" y="-725.75" font-family="Sans-Serif" font-size="13.00" fill="#2d3436">JP7S006G</text>
</g>
<!-- 167b535a0e044ccbb3994376edd7142c -->
<g id="node13" class="node">
<title>167b535a0e044ccbb3994376edd7142c</title>
<image xlink:href="C:\Python312\Lib\site-packages\resources/aws/compute\lambda.png" width="100.8px" height="100.8px" preserveAspectRatio="xMinYMin meet" x="192.8" y="-840.4"/>
<text text-anchor="middle" x="243.2" y="-725.75" font-family="Sans-Serif" font-size="13.00" fill="#2d3436">JP7S007G</text>
</g>
<!-- 9b7ca0b3b9f04dbdbea21902c008ee21&#45;&gt;167b535a0e044ccbb3994376edd7142c -->
<g id="edge9" class="edge">
<title>9b7ca0b3b9f04dbdbea21902c008ee21&#45;&gt;167b535a0e044ccbb3994376edd7142c</title>
<path fill="none" stroke="#7b8894" d="M138.66,-790C156.05,-790 175.54,-790 192.93,-790"/>
</g>
</g>
</svg>
