<?xml version="1.0" encoding="UTF-8" standalone="no"?>
<!DOCTYPE svg PUBLIC "-//W3C//DTD SVG 1.1//EN"
 "http://www.w3.org/Graphics/SVG/1.1/DTD/svg11.dtd">
<!-- Generated by graphviz version 12.2.0 (20241103.1931)
 -->
<!-- Title: DSL Diagram Pages: 1 -->
<svg width="1084pt" height="1236pt"
 viewBox="0.00 0.00 1084.00 1235.50" xmlns="http://www.w3.org/2000/svg" xmlns:xlink="http://www.w3.org/1999/xlink">
<g id="graph0" class="graph" transform="scale(1 1) rotate(0) translate(144 1091.5)">
<title>DSL Diagram</title>
<polygon fill="white" stroke="none" points="-144,144 -144,-1091.5 940,-1091.5 940,144 -144,144"/>
<text text-anchor="middle" x="398" y="-9.25" font-family="Sans-Serif" font-size="15.00" fill="#2d3436">DSL Diagram</text>
<g id="clust1" class="cluster">
<title>cluster_Step 4: &#160;JP700001&#45;4</title>
<path fill="#e5f5fd" stroke="#aeb6be" d="M20,-35.5C20,-35.5 311.6,-35.5 311.6,-35.5 317.6,-35.5 323.6,-41.5 323.6,-47.5 323.6,-47.5 323.6,-243.5 323.6,-243.5 323.6,-249.5 317.6,-255.5 311.6,-255.5 311.6,-255.5 20,-255.5 20,-255.5 14,-255.5 8,-249.5 8,-243.5 8,-243.5 8,-47.5 8,-47.5 8,-41.5 14,-35.5 20,-35.5"/>
<text text-anchor="middle" x="70.75" y="-240.1" font-family="Sans-Serif" font-size="12.00" fill="#2d3436">Step 4: &#160;JP700001&#45;4</text>
</g>
<g id="clust2" class="cluster">
<title>cluster_Step 3: &#160;JP700001&#45;3</title>
<path fill="#e5f5fd" stroke="#aeb6be" d="M20,-263.5C20,-263.5 776,-263.5 776,-263.5 782,-263.5 788,-269.5 788,-275.5 788,-275.5 788,-471.5 788,-471.5 788,-477.5 782,-483.5 776,-483.5 776,-483.5 20,-483.5 20,-483.5 14,-483.5 8,-477.5 8,-471.5 8,-471.5 8,-275.5 8,-275.5 8,-269.5 14,-263.5 20,-263.5"/>
<text text-anchor="middle" x="70.75" y="-468.1" font-family="Sans-Serif" font-size="12.00" fill="#2d3436">Step 3: &#160;JP700001&#45;3</text>
</g>
<g id="clust3" class="cluster">
<title>cluster_Step 2: &#160;JP700001&#45;2</title>
<path fill="#e5f5fd" stroke="#aeb6be" d="M20,-491.5C20,-491.5 466.4,-491.5 466.4,-491.5 472.4,-491.5 478.4,-497.5 478.4,-503.5 478.4,-503.5 478.4,-699.5 478.4,-699.5 478.4,-705.5 472.4,-711.5 466.4,-711.5 466.4,-711.5 20,-711.5 20,-711.5 14,-711.5 8,-705.5 8,-699.5 8,-699.5 8,-503.5 8,-503.5 8,-497.5 14,-491.5 20,-491.5"/>
<text text-anchor="middle" x="70.75" y="-696.1" font-family="Sans-Serif" font-size="12.00" fill="#2d3436">Step 2: &#160;JP700001&#45;2</text>
</g>
<g id="clust4" class="cluster">
<title>cluster_Step 1: &#160;JP700001&#45;1</title>
<path fill="#e5f5fd" stroke="#aeb6be" d="M20,-719.5C20,-719.5 466.4,-719.5 466.4,-719.5 472.4,-719.5 478.4,-725.5 478.4,-731.5 478.4,-731.5 478.4,-927.5 478.4,-927.5 478.4,-933.5 472.4,-939.5 466.4,-939.5 466.4,-939.5 20,-939.5 20,-939.5 14,-939.5 8,-933.5 8,-927.5 8,-927.5 8,-731.5 8,-731.5 8,-725.5 14,-719.5 20,-719.5"/>
<text text-anchor="middle" x="70.75" y="-924.1" font-family="Sans-Serif" font-size="12.00" fill="#2d3436">Step 1: &#160;JP700001&#45;1</text>
</g>
<!-- JP7S006G -->
<g id="node1" class="node">
<title>JP7S006G</title>
<g id="a_node1"><a xlink:href="JP7S006G" xlink:title="JP7S006G" target="_blank">
<image xlink:href="C:\Python312\Lib\site-packages\resources/aws/compute\lambda.png" width="100.8px" height="100.8px" preserveAspectRatio="xMinYMin meet" x="38" y="-183.9"/>
<text text-anchor="middle" x="88.4" y="-69.25" font-family="Sans-Serif" font-size="13.00" fill="#2d3436">JP7S006G</text>
</a>
</g>
</g>
<!-- JP7S007G -->
<g id="node2" class="node">
<title>JP7S007G</title>
<g id="a_node2"><a xlink:href="JP7S007G" xlink:title="JP7S007G" target="_blank">
<image xlink:href="C:\Python312\Lib\site-packages\resources/aws/compute\lambda.png" width="100.8px" height="100.8px" preserveAspectRatio="xMinYMin meet" x="192.8" y="-183.9"/>
<text text-anchor="middle" x="243.2" y="-69.25" font-family="Sans-Serif" font-size="13.00" fill="#2d3436">JP7S007G</text>
</a>
</g>
</g>
<!-- JP7S006G&#45;&gt;JP7S007G -->
<g id="edge1" class="edge">
<title>JP7S006G&#45;&gt;JP7S007G</title>
<path fill="none" stroke="#7b8894" d="M138.66,-133.5C156.05,-133.5 175.54,-133.5 192.93,-133.5"/>
</g>
<!-- JP7G005G -->
<g id="node3" class="node">
<title>JP7G005G</title>
<g id="a_node3"><a xlink:href="JP7G005G" xlink:title="JP7G005G" target="_blank">
<image xlink:href="C:\Python312\Lib\site-packages\resources/aws/analytics\glue.png" width="100.8px" height="100.8px" preserveAspectRatio="xMinYMin meet" x="38" y="-411.9"/>
<text text-anchor="middle" x="88.4" y="-297.25" font-family="Sans-Serif" font-size="13.00" fill="#2d3436">JP7G005G</text>
</a>
</g>
</g>
<!-- JP7G006G -->
<g id="node4" class="node">
<title>JP7G006G</title>
<g id="a_node4"><a xlink:href="JP7G006G" xlink:title="JP7G006G" target="_blank">
<image xlink:href="C:\Python312\Lib\site-packages\resources/aws/analytics\glue.png" width="100.8px" height="100.8px" preserveAspectRatio="xMinYMin meet" x="192.8" y="-411.9"/>
<text text-anchor="middle" x="243.2" y="-297.25" font-family="Sans-Serif" font-size="13.00" fill="#2d3436">JP7G006G</text>
</a>
</g>
</g>
<!-- JP7G005G&#45;&gt;JP7G006G -->
<g id="edge2" class="edge">
<title>JP7G005G&#45;&gt;JP7G006G</title>
<path fill="none" stroke="#7b8894" d="M138.66,-361.5C156.05,-361.5 175.54,-361.5 192.93,-361.5"/>
</g>
<!-- JP7S003G -->
<g id="node5" class="node">
<title>JP7S003G</title>
<g id="a_node5"><a xlink:href="JP7S003G" xlink:title="JP7S003G" target="_blank">
<image xlink:href="C:\Python312\Lib\site-packages\resources/aws/compute\lambda.png" width="100.8px" height="100.8px" preserveAspectRatio="xMinYMin meet" x="347.6" y="-411.9"/>
<text text-anchor="middle" x="398" y="-297.25" font-family="Sans-Serif" font-size="13.00" fill="#2d3436">JP7S003G</text>
</a>
</g>
</g>
<!-- JP7G006G&#45;&gt;JP7S003G -->
<g id="edge3" class="edge">
<title>JP7G006G&#45;&gt;JP7S003G</title>
<path fill="none" stroke="#7b8894" d="M293.46,-361.5C310.85,-361.5 330.34,-361.5 347.73,-361.5"/>
</g>
<!-- JP7S004G -->
<g id="node6" class="node">
<title>JP7S004G</title>
<g id="a_node6"><a xlink:href="JP7S004G" xlink:title="JP7S004G" target="_blank">
<image xlink:href="C:\Python312\Lib\site-packages\resources/aws/compute\lambda.png" width="100.8px" height="100.8px" preserveAspectRatio="xMinYMin meet" x="502.4" y="-411.9"/>
<text text-anchor="middle" x="552.8" y="-297.25" font-family="Sans-Serif" font-size="13.00" fill="#2d3436">JP7S004G</text>
</a>
</g>
</g>
<!-- JP7S003G&#45;&gt;JP7S004G -->
<g id="edge4" class="edge">
<title>JP7S003G&#45;&gt;JP7S004G</title>
<path fill="none" stroke="#7b8894" d="M448.26,-361.5C465.65,-361.5 485.14,-361.5 502.53,-361.5"/>
</g>
<!-- JP7S005G -->
<g id="node7" class="node">
<title>JP7S005G</title>
<g id="a_node7"><a xlink:href="JP7S005G" xlink:title="JP7S005G" target="_blank">
<image xlink:href="C:\Python312\Lib\site-packages\resources/aws/compute\lambda.png" width="100.8px" height="100.8px" preserveAspectRatio="xMinYMin meet" x="657.2" y="-411.9"/>
<text text-anchor="middle" x="707.6" y="-297.25" font-family="Sans-Serif" font-size="13.00" fill="#2d3436">JP7S005G</text>
</a>
</g>
</g>
<!-- JP7S004G&#45;&gt;JP7S005G -->
<g id="edge5" class="edge">
<title>JP7S004G&#45;&gt;JP7S005G</title>
<path fill="none" stroke="#7b8894" d="M603.06,-361.5C620.45,-361.5 639.94,-361.5 657.33,-361.5"/>
</g>
<!-- JP7G003G -->
<g id="node8" class="node">
<title>JP7G003G</title>
<g id="a_node8"><a xlink:href="JP7G003G" xlink:title="JP7G003G" target="_blank">
<image xlink:href="C:\Python312\Lib\site-packages\resources/aws/analytics\glue.png" width="100.8px" height="100.8px" preserveAspectRatio="xMinYMin meet" x="38" y="-639.9"/>
<text text-anchor="middle" x="88.4" y="-525.25" font-family="Sans-Serif" font-size="13.00" fill="#2d3436">JP7G003G</text>
</a>
</g>
</g>
<!-- JP7G004G -->
<g id="node9" class="node">
<title>JP7G004G</title>
<g id="a_node9"><a xlink:href="JP7G004G" xlink:title="JP7G004G" target="_blank">
<image xlink:href="C:\Python312\Lib\site-packages\resources/aws/analytics\glue.png" width="100.8px" height="100.8px" preserveAspectRatio="xMinYMin meet" x="192.8" y="-639.9"/>
<text text-anchor="middle" x="243.2" y="-525.25" font-family="Sans-Serif" font-size="13.00" fill="#2d3436">JP7G004G</text>
</a>
</g>
</g>
<!-- JP7G003G&#45;&gt;JP7G004G -->
<g id="edge6" class="edge">
<title>JP7G003G&#45;&gt;JP7G004G</title>
<path fill="none" stroke="#7b8894" d="M138.66,-589.5C156.05,-589.5 175.54,-589.5 192.93,-589.5"/>
</g>
<!-- JP7S002G -->
<g id="node10" class="node">
<title>JP7S002G</title>
<g id="a_node10"><a xlink:href="JP7S002G" xlink:title="JP7S002G" target="_blank">
<image xlink:href="C:\Python312\Lib\site-packages\resources/aws/compute\lambda.png" width="100.8px" height="100.8px" preserveAspectRatio="xMinYMin meet" x="347.6" y="-639.9"/>
<text text-anchor="middle" x="398" y="-525.25" font-family="Sans-Serif" font-size="13.00" fill="#2d3436">JP7S002G</text>
</a>
</g>
</g>
<!-- JP7G004G&#45;&gt;JP7S002G -->
<g id="edge7" class="edge">
<title>JP7G004G&#45;&gt;JP7S002G</title>
<path fill="none" stroke="#7b8894" d="M293.46,-589.5C310.85,-589.5 330.34,-589.5 347.73,-589.5"/>
</g>
<!-- JP7G001G -->
<g id="node11" class="node">
<title>JP7G001G</title>
<g id="a_node11"><a xlink:href="JP7G001G" xlink:title="JP7G001G" target="_blank">
<image xlink:href="C:\Python312\Lib\site-packages\resources/aws/analytics\glue.png" width="100.8px" height="100.8px" preserveAspectRatio="xMinYMin meet" x="38" y="-867.9"/>
<text text-anchor="middle" x="88.4" y="-753.25" font-family="Sans-Serif" font-size="13.00" fill="#2d3436">JP7G001G</text>
</a>
</g>
</g>
<!-- JP7F002G -->
<g id="node12" class="node">
<title>JP7F002G</title>
<g id="a_node12"><a xlink:href="JP7F002G" xlink:title="JP7F002G" target="_blank">
<image xlink:href="C:\Python312\Lib\site-packages\resources/aws/analytics\glue.png" width="100.8px" height="100.8px" preserveAspectRatio="xMinYMin meet" x="192.8" y="-867.9"/>
<text text-anchor="middle" x="243.2" y="-753.25" font-family="Sans-Serif" font-size="13.00" fill="#2d3436">JP7F002G</text>
</a>
</g>
</g>
<!-- JP7G001G&#45;&gt;JP7F002G -->
<g id="edge8" class="edge">
<title>JP7G001G&#45;&gt;JP7F002G</title>
<path fill="none" stroke="#7b8894" d="M138.66,-817.5C156.05,-817.5 175.54,-817.5 192.93,-817.5"/>
</g>
<!-- JP7S001G -->
<g id="node13" class="node">
<title>JP7S001G</title>
<g id="a_node13"><a xlink:href="JP7S001G" xlink:title="JP7S001G" target="_blank">
<image xlink:href="C:\Python312\Lib\site-packages\resources/aws/compute\lambda.png" width="100.8px" height="100.8px" preserveAspectRatio="xMinYMin meet" x="347.6" y="-867.9"/>
<text text-anchor="middle" x="398" y="-753.25" font-family="Sans-Serif" font-size="13.00" fill="#2d3436">JP7S001G</text>
</a>
</g>
</g>
<!-- JP7F002G&#45;&gt;JP7S001G -->
<g id="edge9" class="edge">
<title>JP7F002G&#45;&gt;JP7S001G</title>
<path fill="none" stroke="#7b8894" d="M293.46,-817.5C310.85,-817.5 330.34,-817.5 347.73,-817.5"/>
</g>
</g>
</svg>
