<?xml version="1.0" encoding="UTF-8" standalone="no"?>
<!DOCTYPE svg PUBLIC "-//W3C//DTD SVG 1.1//EN"
 "http://www.w3.org/Graphics/SVG/1.1/DTD/svg11.dtd">
<!-- Generated by graphviz version 12.2.0 (20241103.1931)
 -->
<!-- Title: DSL Diagram Pages: 1 -->
<svg width="1084pt" height="1272pt"
 viewBox="0.00 0.00 1084.00 1271.50" xmlns="http://www.w3.org/2000/svg" xmlns:xlink="http://www.w3.org/1999/xlink">
<g id="graph0" class="graph" transform="scale(1 1) rotate(0) translate(144 1127.5)">
<title>DSL Diagram</title>
<polygon fill="white" stroke="none" points="-144,144 -144,-1127.5 940,-1127.5 940,144 -144,144"/>
<text text-anchor="middle" x="398" y="-9.25" font-family="Sans-Serif" font-size="15.00" fill="#2d3436">DSL Diagram</text>
<g id="clust1" class="cluster">
<title>cluster_Step 4: &#160;JP700001&#45;4</title>
<path fill="#e5f5fd" stroke="#aeb6be" d="M20,-35.5C20,-35.5 311.6,-35.5 311.6,-35.5 317.6,-35.5 323.6,-41.5 323.6,-47.5 323.6,-47.5 323.6,-252.5 323.6,-252.5 323.6,-258.5 317.6,-264.5 311.6,-264.5 311.6,-264.5 20,-264.5 20,-264.5 14,-264.5 8,-258.5 8,-252.5 8,-252.5 8,-47.5 8,-47.5 8,-41.5 14,-35.5 20,-35.5"/>
<text text-anchor="middle" x="106.75" y="-241.5" font-family="Sans-Serif" font-size="20.00">Step 4: &#160;JP700001&#45;4</text>
</g>
<g id="clust2" class="cluster">
<title>cluster_Step 3: &#160;JP700001&#45;3</title>
<path fill="#e5f5fd" stroke="#aeb6be" d="M20,-272.5C20,-272.5 776,-272.5 776,-272.5 782,-272.5 788,-278.5 788,-284.5 788,-284.5 788,-489.5 788,-489.5 788,-495.5 782,-501.5 776,-501.5 776,-501.5 20,-501.5 20,-501.5 14,-501.5 8,-495.5 8,-489.5 8,-489.5 8,-284.5 8,-284.5 8,-278.5 14,-272.5 20,-272.5"/>
<text text-anchor="middle" x="106.75" y="-478.5" font-family="Sans-Serif" font-size="20.00">Step 3: &#160;JP700001&#45;3</text>
</g>
<g id="clust3" class="cluster">
<title>cluster_Step 2: &#160;JP700001&#45;2</title>
<path fill="#e5f5fd" stroke="#aeb6be" d="M20,-509.5C20,-509.5 466.4,-509.5 466.4,-509.5 472.4,-509.5 478.4,-515.5 478.4,-521.5 478.4,-521.5 478.4,-726.5 478.4,-726.5 478.4,-732.5 472.4,-738.5 466.4,-738.5 466.4,-738.5 20,-738.5 20,-738.5 14,-738.5 8,-732.5 8,-726.5 8,-726.5 8,-521.5 8,-521.5 8,-515.5 14,-509.5 20,-509.5"/>
<text text-anchor="middle" x="106.75" y="-715.5" font-family="Sans-Serif" font-size="20.00">Step 2: &#160;JP700001&#45;2</text>
</g>
<g id="clust4" class="cluster">
<title>cluster_Step 1: &#160;JP700001&#45;1</title>
<path fill="#e5f5fd" stroke="#aeb6be" d="M20,-746.5C20,-746.5 466.4,-746.5 466.4,-746.5 472.4,-746.5 478.4,-752.5 478.4,-758.5 478.4,-758.5 478.4,-963.5 478.4,-963.5 478.4,-969.5 472.4,-975.5 466.4,-975.5 466.4,-975.5 20,-975.5 20,-975.5 14,-975.5 8,-969.5 8,-963.5 8,-963.5 8,-758.5 8,-758.5 8,-752.5 14,-746.5 20,-746.5"/>
<text text-anchor="middle" x="106.75" y="-952.5" font-family="Sans-Serif" font-size="20.00">Step 1: &#160;JP700001&#45;1</text>
</g>
<!-- JP7S006G -->
<g id="node1" class="node">
<title>JP7S006G</title>
<image xlink:href="C:\Python312\Lib\site-packages\resources/aws/compute\lambda.png" width="100.8px" height="100.8px" preserveAspectRatio="xMinYMin meet" x="38" y="-183.9"/>
<text text-anchor="middle" x="88.4" y="-69.25" font-family="Sans-Serif" font-size="13.00" fill="#2d3436">JP7S006G</text>
</g>
<!-- JP7S007G -->
<g id="node2" class="node">
<title>JP7S007G</title>
<image xlink:href="C:\Python312\Lib\site-packages\resources/aws/compute\lambda.png" width="100.8px" height="100.8px" preserveAspectRatio="xMinYMin meet" x="192.8" y="-183.9"/>
<text text-anchor="middle" x="243.2" y="-69.25" font-family="Sans-Serif" font-size="13.00" fill="#2d3436">JP7S007G</text>
</g>
<!-- JP7S006G&#45;&gt;JP7S007G -->
<g id="edge1" class="edge">
<title>JP7S006G&#45;&gt;JP7S007G</title>
<path fill="none" stroke="#7b8894" d="M138.66,-133.5C156.05,-133.5 175.54,-133.5 192.93,-133.5"/>
</g>
<!-- JP7G005G -->
<g id="node3" class="node">
<title>JP7G005G</title>
<image xlink:href="C:\Python312\Lib\site-packages\resources/aws/analytics\glue.png" width="100.8px" height="100.8px" preserveAspectRatio="xMinYMin meet" x="38" y="-420.9"/>
<text text-anchor="middle" x="88.4" y="-306.25" font-family="Sans-Serif" font-size="13.00" fill="#2d3436">JP7G005G</text>
</g>
<!-- JP7G006G -->
<g id="node4" class="node">
<title>JP7G006G</title>
<image xlink:href="C:\Python312\Lib\site-packages\resources/aws/analytics\glue.png" width="100.8px" height="100.8px" preserveAspectRatio="xMinYMin meet" x="192.8" y="-420.9"/>
<text text-anchor="middle" x="243.2" y="-306.25" font-family="Sans-Serif" font-size="13.00" fill="#2d3436">JP7G006G</text>
</g>
<!-- JP7G005G&#45;&gt;JP7G006G -->
<g id="edge2" class="edge">
<title>JP7G005G&#45;&gt;JP7G006G</title>
<path fill="none" stroke="#7b8894" d="M138.66,-370.5C156.05,-370.5 175.54,-370.5 192.93,-370.5"/>
</g>
<!-- JP7S003G -->
<g id="node5" class="node">
<title>JP7S003G</title>
<image xlink:href="C:\Python312\Lib\site-packages\resources/aws/compute\lambda.png" width="100.8px" height="100.8px" preserveAspectRatio="xMinYMin meet" x="347.6" y="-420.9"/>
<text text-anchor="middle" x="398" y="-306.25" font-family="Sans-Serif" font-size="13.00" fill="#2d3436">JP7S003G</text>
</g>
<!-- JP7G006G&#45;&gt;JP7S003G -->
<g id="edge3" class="edge">
<title>JP7G006G&#45;&gt;JP7S003G</title>
<path fill="none" stroke="#7b8894" d="M293.46,-370.5C310.85,-370.5 330.34,-370.5 347.73,-370.5"/>
</g>
<!-- JP7S004G -->
<g id="node6" class="node">
<title>JP7S004G</title>
<image xlink:href="C:\Python312\Lib\site-packages\resources/aws/compute\lambda.png" width="100.8px" height="100.8px" preserveAspectRatio="xMinYMin meet" x="502.4" y="-420.9"/>
<text text-anchor="middle" x="552.8" y="-306.25" font-family="Sans-Serif" font-size="13.00" fill="#2d3436">JP7S004G</text>
</g>
<!-- JP7S003G&#45;&gt;JP7S004G -->
<g id="edge4" class="edge">
<title>JP7S003G&#45;&gt;JP7S004G</title>
<path fill="none" stroke="#7b8894" d="M448.26,-370.5C465.65,-370.5 485.14,-370.5 502.53,-370.5"/>
</g>
<!-- JP7S005G -->
<g id="node7" class="node">
<title>JP7S005G</title>
<image xlink:href="C:\Python312\Lib\site-packages\resources/aws/compute\lambda.png" width="100.8px" height="100.8px" preserveAspectRatio="xMinYMin meet" x="657.2" y="-420.9"/>
<text text-anchor="middle" x="707.6" y="-306.25" font-family="Sans-Serif" font-size="13.00" fill="#2d3436">JP7S005G</text>
</g>
<!-- JP7S004G&#45;&gt;JP7S005G -->
<g id="edge5" class="edge">
<title>JP7S004G&#45;&gt;JP7S005G</title>
<path fill="none" stroke="#7b8894" d="M603.06,-370.5C620.45,-370.5 639.94,-370.5 657.33,-370.5"/>
</g>
<!-- JP7G003G -->
<g id="node8" class="node">
<title>JP7G003G</title>
<image xlink:href="C:\Python312\Lib\site-packages\resources/aws/analytics\glue.png" width="100.8px" height="100.8px" preserveAspectRatio="xMinYMin meet" x="38" y="-657.9"/>
<text text-anchor="middle" x="88.4" y="-543.25" font-family="Sans-Serif" font-size="13.00" fill="#2d3436">JP7G003G</text>
</g>
<!-- JP7G004G -->
<g id="node9" class="node">
<title>JP7G004G</title>
<image xlink:href="C:\Python312\Lib\site-packages\resources/aws/analytics\glue.png" width="100.8px" height="100.8px" preserveAspectRatio="xMinYMin meet" x="192.8" y="-657.9"/>
<text text-anchor="middle" x="243.2" y="-543.25" font-family="Sans-Serif" font-size="13.00" fill="#2d3436">JP7G004G</text>
</g>
<!-- JP7G003G&#45;&gt;JP7G004G -->
<g id="edge6" class="edge">
<title>JP7G003G&#45;&gt;JP7G004G</title>
<path fill="none" stroke="#7b8894" d="M138.66,-607.5C156.05,-607.5 175.54,-607.5 192.93,-607.5"/>
</g>
<!-- JP7S002G -->
<g id="node10" class="node">
<title>JP7S002G</title>
<image xlink:href="C:\Python312\Lib\site-packages\resources/aws/compute\lambda.png" width="100.8px" height="100.8px" preserveAspectRatio="xMinYMin meet" x="347.6" y="-657.9"/>
<text text-anchor="middle" x="398" y="-543.25" font-family="Sans-Serif" font-size="13.00" fill="#2d3436">JP7S002G</text>
</g>
<!-- JP7G004G&#45;&gt;JP7S002G -->
<g id="edge7" class="edge">
<title>JP7G004G&#45;&gt;JP7S002G</title>
<path fill="none" stroke="#7b8894" d="M293.46,-607.5C310.85,-607.5 330.34,-607.5 347.73,-607.5"/>
</g>
<!-- JP7G001G -->
<g id="node11" class="node">
<title>JP7G001G</title>
<image xlink:href="C:\Python312\Lib\site-packages\resources/aws/analytics\glue.png" width="100.8px" height="100.8px" preserveAspectRatio="xMinYMin meet" x="38" y="-894.9"/>
<text text-anchor="middle" x="88.4" y="-780.25" font-family="Sans-Serif" font-size="13.00" fill="#2d3436">JP7G001G</text>
</g>
<!-- JP7F002G -->
<g id="node12" class="node">
<title>JP7F002G</title>
<image xlink:href="C:\Python312\Lib\site-packages\resources/aws/analytics\glue.png" width="100.8px" height="100.8px" preserveAspectRatio="xMinYMin meet" x="192.8" y="-894.9"/>
<text text-anchor="middle" x="243.2" y="-780.25" font-family="Sans-Serif" font-size="13.00" fill="#2d3436">JP7F002G</text>
</g>
<!-- JP7G001G&#45;&gt;JP7F002G -->
<g id="edge8" class="edge">
<title>JP7G001G&#45;&gt;JP7F002G</title>
<path fill="none" stroke="#7b8894" d="M138.66,-844.5C156.05,-844.5 175.54,-844.5 192.93,-844.5"/>
</g>
<!-- JP7S001G -->
<g id="node13" class="node">
<title>JP7S001G</title>
<image xlink:href="C:\Python312\Lib\site-packages\resources/aws/compute\lambda.png" width="100.8px" height="100.8px" preserveAspectRatio="xMinYMin meet" x="347.6" y="-894.9"/>
<text text-anchor="middle" x="398" y="-780.25" font-family="Sans-Serif" font-size="13.00" fill="#2d3436">JP7S001G</text>
</g>
<!-- JP7F002G&#45;&gt;JP7S001G -->
<g id="edge9" class="edge">
<title>JP7F002G&#45;&gt;JP7S001G</title>
<path fill="none" stroke="#7b8894" d="M293.46,-844.5C310.85,-844.5 330.34,-844.5 347.73,-844.5"/>
</g>
</g>
</svg>
