<?xml version="1.0" encoding="UTF-8" standalone="no"?>
<!DOCTYPE svg PUBLIC "-//W3C//DTD SVG 1.1//EN"
 "http://www.w3.org/Graphics/SVG/1.1/DTD/svg11.dtd">
<!-- Generated by graphviz version 12.2.0 (20241103.1931)
 -->
<!-- Title: DSL Diagram Pages: 1 -->
<svg width="1084pt" height="1252pt"
 viewBox="0.00 0.00 1084.00 1251.50" xmlns="http://www.w3.org/2000/svg" xmlns:xlink="http://www.w3.org/1999/xlink">
<g id="graph0" class="graph" transform="scale(1 1) rotate(0) translate(144 1107.5)">
<title>DSL Diagram</title>
<polygon fill="white" stroke="none" points="-144,144 -144,-1107.5 940,-1107.5 940,144 -144,144"/>
<text text-anchor="middle" x="398" y="-9.25" font-family="Sans-Serif" font-size="15.00" fill="#2d3436">DSL Diagram</text>
<g id="clust1" class="cluster">
<title>cluster_Step 4: &#160;JP700001&#45;4</title>
<path fill="#e5f5fd" stroke="#aeb6be" d="M20,-35.5C20,-35.5 311.6,-35.5 311.6,-35.5 317.6,-35.5 323.6,-41.5 323.6,-47.5 323.6,-47.5 323.6,-247.5 323.6,-247.5 323.6,-253.5 317.6,-259.5 311.6,-259.5 311.6,-259.5 20,-259.5 20,-259.5 14,-259.5 8,-253.5 8,-247.5 8,-247.5 8,-47.5 8,-47.5 8,-41.5 14,-35.5 20,-35.5"/>
<text text-anchor="middle" x="83.12" y="-241.25" font-family="Sans-Serif" font-size="15.00" fill="#2d3436">Step 4: &#160;JP700001&#45;4</text>
</g>
<g id="clust2" class="cluster">
<title>cluster_Step 3: &#160;JP700001&#45;3</title>
<path fill="#e5f5fd" stroke="#aeb6be" d="M20,-267.5C20,-267.5 776,-267.5 776,-267.5 782,-267.5 788,-273.5 788,-279.5 788,-279.5 788,-479.5 788,-479.5 788,-485.5 782,-491.5 776,-491.5 776,-491.5 20,-491.5 20,-491.5 14,-491.5 8,-485.5 8,-479.5 8,-479.5 8,-279.5 8,-279.5 8,-273.5 14,-267.5 20,-267.5"/>
<text text-anchor="middle" x="83.12" y="-473.25" font-family="Sans-Serif" font-size="15.00" fill="#2d3436">Step 3: &#160;JP700001&#45;3</text>
</g>
<g id="clust3" class="cluster">
<title>cluster_Step 2: &#160;JP700001&#45;2</title>
<path fill="#e5f5fd" stroke="#aeb6be" d="M20,-499.5C20,-499.5 466.4,-499.5 466.4,-499.5 472.4,-499.5 478.4,-505.5 478.4,-511.5 478.4,-511.5 478.4,-711.5 478.4,-711.5 478.4,-717.5 472.4,-723.5 466.4,-723.5 466.4,-723.5 20,-723.5 20,-723.5 14,-723.5 8,-717.5 8,-711.5 8,-711.5 8,-511.5 8,-511.5 8,-505.5 14,-499.5 20,-499.5"/>
<text text-anchor="middle" x="83.12" y="-705.25" font-family="Sans-Serif" font-size="15.00" fill="#2d3436">Step 2: &#160;JP700001&#45;2</text>
</g>
<g id="clust4" class="cluster">
<title>cluster_Step 1: &#160;JP700001&#45;1</title>
<path fill="#e5f5fd" stroke="#aeb6be" d="M20,-731.5C20,-731.5 466.4,-731.5 466.4,-731.5 472.4,-731.5 478.4,-737.5 478.4,-743.5 478.4,-743.5 478.4,-943.5 478.4,-943.5 478.4,-949.5 472.4,-955.5 466.4,-955.5 466.4,-955.5 20,-955.5 20,-955.5 14,-955.5 8,-949.5 8,-943.5 8,-943.5 8,-743.5 8,-743.5 8,-737.5 14,-731.5 20,-731.5"/>
<text text-anchor="middle" x="83.12" y="-937.25" font-family="Sans-Serif" font-size="15.00" fill="#2d3436">Step 1: &#160;JP700001&#45;1</text>
</g>
<!-- JP7S006G -->
<g id="node1" class="node">
<title>JP7S006G</title>
<image xlink:href="C:\Python312\Lib\site-packages\resources/aws/compute\lambda.png" width="100.8px" height="100.8px" preserveAspectRatio="xMinYMin meet" x="38" y="-183.9"/>
<text text-anchor="middle" x="88.4" y="-69.25" font-family="Sans-Serif" font-size="13.00" fill="#2d3436">JP7S006G</text>
</g>
<!-- JP7S007G -->
<g id="node2" class="node">
<title>JP7S007G</title>
<image xlink:href="C:\Python312\Lib\site-packages\resources/aws/compute\lambda.png" width="100.8px" height="100.8px" preserveAspectRatio="xMinYMin meet" x="192.8" y="-183.9"/>
<text text-anchor="middle" x="243.2" y="-69.25" font-family="Sans-Serif" font-size="13.00" fill="#2d3436">JP7S007G</text>
</g>
<!-- JP7S006G&#45;&gt;JP7S007G -->
<g id="edge1" class="edge">
<title>JP7S006G&#45;&gt;JP7S007G</title>
<path fill="none" stroke="#7b8894" d="M138.66,-133.5C156.05,-133.5 175.54,-133.5 192.93,-133.5"/>
</g>
<!-- JP7G005G -->
<g id="node3" class="node">
<title>JP7G005G</title>
<image xlink:href="C:\Python312\Lib\site-packages\resources/aws/analytics\glue.png" width="100.8px" height="100.8px" preserveAspectRatio="xMinYMin meet" x="38" y="-415.9"/>
<text text-anchor="middle" x="88.4" y="-301.25" font-family="Sans-Serif" font-size="13.00" fill="#2d3436">JP7G005G</text>
</g>
<!-- JP7G006G -->
<g id="node4" class="node">
<title>JP7G006G</title>
<image xlink:href="C:\Python312\Lib\site-packages\resources/aws/analytics\glue.png" width="100.8px" height="100.8px" preserveAspectRatio="xMinYMin meet" x="192.8" y="-415.9"/>
<text text-anchor="middle" x="243.2" y="-301.25" font-family="Sans-Serif" font-size="13.00" fill="#2d3436">JP7G006G</text>
</g>
<!-- JP7G005G&#45;&gt;JP7G006G -->
<g id="edge2" class="edge">
<title>JP7G005G&#45;&gt;JP7G006G</title>
<path fill="none" stroke="#7b8894" d="M138.66,-365.5C156.05,-365.5 175.54,-365.5 192.93,-365.5"/>
</g>
<!-- JP7S003G -->
<g id="node5" class="node">
<title>JP7S003G</title>
<image xlink:href="C:\Python312\Lib\site-packages\resources/aws/compute\lambda.png" width="100.8px" height="100.8px" preserveAspectRatio="xMinYMin meet" x="347.6" y="-415.9"/>
<text text-anchor="middle" x="398" y="-301.25" font-family="Sans-Serif" font-size="13.00" fill="#2d3436">JP7S003G</text>
</g>
<!-- JP7G006G&#45;&gt;JP7S003G -->
<g id="edge3" class="edge">
<title>JP7G006G&#45;&gt;JP7S003G</title>
<path fill="none" stroke="#7b8894" d="M293.46,-365.5C310.85,-365.5 330.34,-365.5 347.73,-365.5"/>
</g>
<!-- JP7S004G -->
<g id="node6" class="node">
<title>JP7S004G</title>
<image xlink:href="C:\Python312\Lib\site-packages\resources/aws/compute\lambda.png" width="100.8px" height="100.8px" preserveAspectRatio="xMinYMin meet" x="502.4" y="-415.9"/>
<text text-anchor="middle" x="552.8" y="-301.25" font-family="Sans-Serif" font-size="13.00" fill="#2d3436">JP7S004G</text>
</g>
<!-- JP7S003G&#45;&gt;JP7S004G -->
<g id="edge4" class="edge">
<title>JP7S003G&#45;&gt;JP7S004G</title>
<path fill="none" stroke="#7b8894" d="M448.26,-365.5C465.65,-365.5 485.14,-365.5 502.53,-365.5"/>
</g>
<!-- JP7S005G -->
<g id="node7" class="node">
<title>JP7S005G</title>
<image xlink:href="C:\Python312\Lib\site-packages\resources/aws/compute\lambda.png" width="100.8px" height="100.8px" preserveAspectRatio="xMinYMin meet" x="657.2" y="-415.9"/>
<text text-anchor="middle" x="707.6" y="-301.25" font-family="Sans-Serif" font-size="13.00" fill="#2d3436">JP7S005G</text>
</g>
<!-- JP7S004G&#45;&gt;JP7S005G -->
<g id="edge5" class="edge">
<title>JP7S004G&#45;&gt;JP7S005G</title>
<path fill="none" stroke="#7b8894" d="M603.06,-365.5C620.45,-365.5 639.94,-365.5 657.33,-365.5"/>
</g>
<!-- JP7G003G -->
<g id="node8" class="node">
<title>JP7G003G</title>
<image xlink:href="C:\Python312\Lib\site-packages\resources/aws/analytics\glue.png" width="100.8px" height="100.8px" preserveAspectRatio="xMinYMin meet" x="38" y="-647.9"/>
<text text-anchor="middle" x="88.4" y="-533.25" font-family="Sans-Serif" font-size="13.00" fill="#2d3436">JP7G003G</text>
</g>
<!-- JP7G004G -->
<g id="node9" class="node">
<title>JP7G004G</title>
<image xlink:href="C:\Python312\Lib\site-packages\resources/aws/analytics\glue.png" width="100.8px" height="100.8px" preserveAspectRatio="xMinYMin meet" x="192.8" y="-647.9"/>
<text text-anchor="middle" x="243.2" y="-533.25" font-family="Sans-Serif" font-size="13.00" fill="#2d3436">JP7G004G</text>
</g>
<!-- JP7G003G&#45;&gt;JP7G004G -->
<g id="edge6" class="edge">
<title>JP7G003G&#45;&gt;JP7G004G</title>
<path fill="none" stroke="#7b8894" d="M138.66,-597.5C156.05,-597.5 175.54,-597.5 192.93,-597.5"/>
</g>
<!-- JP7S002G -->
<g id="node10" class="node">
<title>JP7S002G</title>
<image xlink:href="C:\Python312\Lib\site-packages\resources/aws/compute\lambda.png" width="100.8px" height="100.8px" preserveAspectRatio="xMinYMin meet" x="347.6" y="-647.9"/>
<text text-anchor="middle" x="398" y="-533.25" font-family="Sans-Serif" font-size="13.00" fill="#2d3436">JP7S002G</text>
</g>
<!-- JP7G004G&#45;&gt;JP7S002G -->
<g id="edge7" class="edge">
<title>JP7G004G&#45;&gt;JP7S002G</title>
<path fill="none" stroke="#7b8894" d="M293.46,-597.5C310.85,-597.5 330.34,-597.5 347.73,-597.5"/>
</g>
<!-- JP7G001G -->
<g id="node11" class="node">
<title>JP7G001G</title>
<image xlink:href="C:\Python312\Lib\site-packages\resources/aws/analytics\glue.png" width="100.8px" height="100.8px" preserveAspectRatio="xMinYMin meet" x="38" y="-879.9"/>
<text text-anchor="middle" x="88.4" y="-765.25" font-family="Sans-Serif" font-size="13.00" fill="#2d3436">JP7G001G</text>
</g>
<!-- JP7F002G -->
<g id="node12" class="node">
<title>JP7F002G</title>
<image xlink:href="C:\Python312\Lib\site-packages\resources/aws/analytics\glue.png" width="100.8px" height="100.8px" preserveAspectRatio="xMinYMin meet" x="192.8" y="-879.9"/>
<text text-anchor="middle" x="243.2" y="-765.25" font-family="Sans-Serif" font-size="13.00" fill="#2d3436">JP7F002G</text>
</g>
<!-- JP7G001G&#45;&gt;JP7F002G -->
<g id="edge8" class="edge">
<title>JP7G001G&#45;&gt;JP7F002G</title>
<path fill="none" stroke="#7b8894" d="M138.66,-829.5C156.05,-829.5 175.54,-829.5 192.93,-829.5"/>
</g>
<!-- JP7S001G -->
<g id="node13" class="node">
<title>JP7S001G</title>
<image xlink:href="C:\Python312\Lib\site-packages\resources/aws/compute\lambda.png" width="100.8px" height="100.8px" preserveAspectRatio="xMinYMin meet" x="347.6" y="-879.9"/>
<text text-anchor="middle" x="398" y="-765.25" font-family="Sans-Serif" font-size="13.00" fill="#2d3436">JP7S001G</text>
</g>
<!-- JP7F002G&#45;&gt;JP7S001G -->
<g id="edge9" class="edge">
<title>JP7F002G&#45;&gt;JP7S001G</title>
<path fill="none" stroke="#7b8894" d="M293.46,-829.5C310.85,-829.5 330.34,-829.5 347.73,-829.5"/>
</g>
</g>
</svg>
