<?xml version="1.0" encoding="UTF-8" standalone="no"?>
<!DOCTYPE svg PUBLIC "-//W3C//DTD SVG 1.1//EN"
 "http://www.w3.org/Graphics/SVG/1.1/DTD/svg11.dtd">
<!-- Generated by graphviz version 12.2.0 (20241103.1931)
 -->
<!-- Title: Grouped Workers Pages: 1 -->
<svg width="648pt" height="777pt"
 viewBox="0.00 0.00 648.00 776.60" xmlns="http://www.w3.org/2000/svg" xmlns:xlink="http://www.w3.org/1999/xlink">
<g id="graph0" class="graph" transform="scale(1 1) rotate(0) translate(144 632.6)">
<title>Grouped Workers</title>
<polygon fill="white" stroke="none" points="-144,144 -144,-632.6 504,-632.6 504,144 -144,144"/>
<text text-anchor="middle" x="180" y="-9.25" font-family="Sans-Serif" font-size="15.00" fill="#2d3436">Grouped Workers</text>
<g id="clust1" class="cluster">
<title>cluster_Step 1</title>
<path fill="#e5f5fd" stroke="#aeb6be" d="M20,-220.05C20,-220.05 340,-220.05 340,-220.05 346,-220.05 352,-226.05 352,-232.05 352,-232.05 352,-468.6 352,-468.6 352,-474.6 346,-480.6 340,-480.6 340,-480.6 20,-480.6 20,-480.6 14,-480.6 8,-474.6 8,-468.6 8,-468.6 8,-232.05 8,-232.05 8,-226.05 14,-220.05 20,-220.05"/>
<text text-anchor="middle" x="32.88" y="-465.2" font-family="Sans-Serif" font-size="12.00" fill="#2d3436">Step 1</text>
</g>
<g id="clust2" class="cluster">
<title>cluster_Step 2</title>
<path fill="#e5f5fd" stroke="#aeb6be" d="M62,-35.5C62,-35.5 298,-35.5 298,-35.5 304,-35.5 310,-41.5 310,-47.5 310,-47.5 310,-200.05 310,-200.05 310,-206.05 304,-212.05 298,-212.05 298,-212.05 62,-212.05 62,-212.05 56,-212.05 50,-206.05 50,-200.05 50,-200.05 50,-47.5 50,-47.5 50,-41.5 56,-35.5 62,-35.5"/>
<text text-anchor="middle" x="74.88" y="-196.65" font-family="Sans-Serif" font-size="12.00" fill="#2d3436">Step 2</text>
</g>
<!-- xablau -->
<g id="node1" class="node">
<title>xablau</title>
<g id="a_node1"><a xlink:href="xablau" xlink:title="hsuadhususahdusahdu" target="_blank">
<image xlink:href="C:\Python312\Lib\site-packages\resources/aws/analytics\glue.png" width="100.8px" height="100.8px" preserveAspectRatio="xMinYMin meet" x="57.6" y="-388.85"/>
<text text-anchor="middle" x="108" y="-274.2" font-family="Sans-Serif" font-size="13.00" fill="#2d3436">hsuadhususahdusahdu</text>
</a>
</g>
</g>
<!-- xablau3 -->
<g id="node3" class="node">
<title>xablau3</title>
<g id="a_node3"><a xlink:href="xablau" xlink:title="hsuadhususahdusahdu" target="_blank">
<image xlink:href="C:\Python312\Lib\site-packages\resources/aws/analytics\glue.png" width="100.8px" height="100.8px" preserveAspectRatio="xMinYMin meet" x="57.6" y="-162.3"/>
<text text-anchor="middle" x="108" y="-47.65" font-family="Sans-Serif" font-size="13.00" fill="#2d3436">hsuadhususahdusahdu</text>
</a>
</g>
</g>
<!-- xablau&#45;&gt;xablau3 -->
<g id="edge1" class="edge">
<title>xablau&#45;&gt;xablau3</title>
<path fill="none" stroke="#7b8894" d="M108,-270.17C108,-270.17 108,-191.55 108,-191.55"/>
<polygon fill="#7b8894" stroke="#7b8894" points="111.5,-191.55 108,-181.55 104.5,-191.55 111.5,-191.55"/>
</g>
<!-- xablau2 -->
<g id="node2" class="node">
<title>xablau2</title>
<g id="a_node2"><a xlink:href="xablau" xlink:title="hsuadhususahdusahdu" target="_blank">
<image xlink:href="C:\Python312\Lib\site-packages\resources/aws/analytics\glue.png" width="100.8px" height="100.8px" preserveAspectRatio="xMinYMin meet" x="201.6" y="-388.85"/>
<text text-anchor="middle" x="252" y="-274.2" font-family="Sans-Serif" font-size="13.00" fill="#2d3436">hsuadhususahdusahdu</text>
</a>
</g>
</g>
<!-- xablau4 -->
<g id="node4" class="node">
<title>xablau4</title>
<g id="a_node4"><a xlink:href="xablau" xlink:title="hsuadhususahdusahdu" target="_blank">
<image xlink:href="C:\Python312\Lib\site-packages\resources/aws/analytics\glue.png" width="100.8px" height="100.8px" preserveAspectRatio="xMinYMin meet" x="201.6" y="-162.3"/>
<text text-anchor="middle" x="252" y="-47.65" font-family="Sans-Serif" font-size="13.00" fill="#2d3436">hsuadhususahdusahdu</text>
</a>
</g>
</g>
</g>
</svg>
