<?xml version="1.0" encoding="UTF-8" standalone="no"?>
<!DOCTYPE svg PUBLIC "-//W3C//DTD SVG 1.1//EN"
 "http://www.w3.org/Graphics/SVG/1.1/DTD/svg11.dtd">
<!-- Generated by graphviz version 12.2.0 (20241103.1931)
 -->
<!-- Title: Grouped Workers Pages: 1 -->
<svg width="588pt" height="717pt"
 viewBox="0.00 0.00 588.00 716.60" xmlns="http://www.w3.org/2000/svg" xmlns:xlink="http://www.w3.org/1999/xlink">
<g id="graph0" class="graph" transform="scale(1 1) rotate(0) translate(144 572.6)">
<title>Grouped Workers</title>
<polygon fill="white" stroke="none" points="-144,144 -144,-572.6 444,-572.6 444,144 -144,144"/>
<text text-anchor="middle" x="150" y="-9.25" font-family="Sans-Serif" font-size="15.00" fill="#2d3436">Grouped Workers</text>
<g id="clust1" class="cluster">
<title>cluster_Step 1</title>
<path fill="#e5f5fd" stroke="#aeb6be" d="M20,-220.05C20,-220.05 280,-220.05 280,-220.05 286,-220.05 292,-226.05 292,-232.05 292,-232.05 292,-408.6 292,-408.6 292,-414.6 286,-420.6 280,-420.6 280,-420.6 20,-420.6 20,-420.6 14,-420.6 8,-414.6 8,-408.6 8,-408.6 8,-232.05 8,-232.05 8,-226.05 14,-220.05 20,-220.05"/>
<text text-anchor="middle" x="32.88" y="-405.2" font-family="Sans-Serif" font-size="12.00" fill="#2d3436">Step 1</text>
</g>
<g id="clust2" class="cluster">
<title>cluster_Step 2</title>
<path fill="#e5f5fd" stroke="#aeb6be" d="M32,-35.5C32,-35.5 268,-35.5 268,-35.5 274,-35.5 280,-41.5 280,-47.5 280,-47.5 280,-200.05 280,-200.05 280,-206.05 274,-212.05 268,-212.05 268,-212.05 32,-212.05 32,-212.05 26,-212.05 20,-206.05 20,-200.05 20,-200.05 20,-47.5 20,-47.5 20,-41.5 26,-35.5 32,-35.5"/>
<text text-anchor="middle" x="44.88" y="-196.65" font-family="Sans-Serif" font-size="12.00" fill="#2d3436">Step 2</text>
</g>
<!-- xablau -->
<g id="node1" class="node">
<title>xablau</title>
<g id="a_node1"><a xlink:href="xablau" xlink:title="hsuadhususahdusahdu" target="_blank">
<image xlink:href="C:\Python312\Lib\site-packages\resources/aws/analytics\glue.png" width="100.8px" height="100.8px" preserveAspectRatio="xMinYMin meet" x="27.6" y="-358.85"/>
<text text-anchor="middle" x="78" y="-244.2" font-family="Sans-Serif" font-size="13.00" fill="#2d3436">hsuadhususahdusahdu</text>
</a>
</g>
</g>
<!-- xablau3 -->
<g id="node3" class="node">
<title>xablau3</title>
<g id="a_node3"><a xlink:href="xablau" xlink:title="hsuadhususahdusahdu" target="_blank">
<image xlink:href="C:\Python312\Lib\site-packages\resources/aws/analytics\glue.png" width="100.8px" height="100.8px" preserveAspectRatio="xMinYMin meet" x="27.6" y="-162.3"/>
<text text-anchor="middle" x="78" y="-47.65" font-family="Sans-Serif" font-size="13.00" fill="#2d3436">hsuadhususahdusahdu</text>
</a>
</g>
</g>
<!-- xablau&#45;&gt;xablau3 -->
<g id="edge1" class="edge">
<title>xablau&#45;&gt;xablau3</title>
<path fill="none" stroke="#7b8894" d="M78,-240.26C78,-240.26 78,-191.49 78,-191.49"/>
<polygon fill="#7b8894" stroke="#7b8894" points="81.5,-191.49 78,-181.49 74.5,-191.49 81.5,-191.49"/>
</g>
<!-- xablau2 -->
<g id="node2" class="node">
<title>xablau2</title>
<g id="a_node2"><a xlink:href="xablau" xlink:title="hsuadhususahdusahdu" target="_blank">
<image xlink:href="C:\Python312\Lib\site-packages\resources/aws/analytics\glue.png" width="100.8px" height="100.8px" preserveAspectRatio="xMinYMin meet" x="171.6" y="-358.85"/>
<text text-anchor="middle" x="222" y="-244.2" font-family="Sans-Serif" font-size="13.00" fill="#2d3436">hsuadhususahdusahdu</text>
</a>
</g>
</g>
<!-- xablau4 -->
<g id="node4" class="node">
<title>xablau4</title>
<g id="a_node4"><a xlink:href="xablau" xlink:title="hsuadhususahdusahdu" target="_blank">
<image xlink:href="C:\Python312\Lib\site-packages\resources/aws/analytics\glue.png" width="100.8px" height="100.8px" preserveAspectRatio="xMinYMin meet" x="171.6" y="-162.3"/>
<text text-anchor="middle" x="222" y="-47.65" font-family="Sans-Serif" font-size="13.00" fill="#2d3436">hsuadhususahdusahdu</text>
</a>
</g>
</g>
</g>
</svg>
