<?xml version="1.0" encoding="UTF-8" standalone="no"?>
<!DOCTYPE svg PUBLIC "-//W3C//DTD SVG 1.1//EN"
 "http://www.w3.org/Graphics/SVG/1.1/DTD/svg11.dtd">
<!-- Generated by graphviz version 12.2.0 (20241103.1931)
 -->
<!-- Title: Grouped Workers Pages: 1 -->
<svg width="1184pt" height="781pt"
 viewBox="0.00 0.00 1184.00 780.60" xmlns="http://www.w3.org/2000/svg" xmlns:xlink="http://www.w3.org/1999/xlink">
<g id="graph0" class="graph" transform="scale(1 1) rotate(0) translate(144 636.6)">
<title>Grouped Workers</title>
<polygon fill="white" stroke="none" points="-144,144 -144,-636.6 1040,-636.6 1040,144 -144,144"/>
<text text-anchor="middle" x="448" y="-9.25" font-family="Sans-Serif" font-size="15.00" fill="#2d3436">Grouped Workers</text>
<g id="clust1" class="cluster">
<title>cluster_Step 1</title>
<path fill="#e5f5fd" stroke="#aeb6be" d="M20,-264.05C20,-264.05 300,-264.05 300,-264.05 306,-264.05 312,-270.05 312,-276.05 312,-276.05 312,-472.6 312,-472.6 312,-478.6 306,-484.6 300,-484.6 300,-484.6 20,-484.6 20,-484.6 14,-484.6 8,-478.6 8,-472.6 8,-472.6 8,-276.05 8,-276.05 8,-270.05 14,-264.05 20,-264.05"/>
<text text-anchor="middle" x="32.88" y="-469.2" font-family="Sans-Serif" font-size="12.00" fill="#2d3436">Step 1</text>
</g>
<g id="clust2" class="cluster">
<title>cluster_Step 2</title>
<path fill="#e5f5fd" stroke="#aeb6be" d="M20,-35.5C20,-35.5 876,-35.5 876,-35.5 882,-35.5 888,-41.5 888,-47.5 888,-47.5 888,-244.05 888,-244.05 888,-250.05 882,-256.05 876,-256.05 876,-256.05 20,-256.05 20,-256.05 14,-256.05 8,-250.05 8,-244.05 8,-244.05 8,-47.5 8,-47.5 8,-41.5 14,-35.5 20,-35.5"/>
<text text-anchor="middle" x="32.88" y="-240.65" font-family="Sans-Serif" font-size="12.00" fill="#2d3436">Step 2</text>
</g>
<!-- xablau -->
<g id="node1" class="node">
<title>xablau</title>
<g id="a_node1"><a xlink:href="xablau" xlink:title="hsuadhususahdusahdu" target="_blank">
<image xlink:href="C:\Python312\Lib\site-packages\resources/aws/analytics\glue.png" width="100.8px" height="100.8px" preserveAspectRatio="xMinYMin meet" x="37.6" y="-412.85"/>
<text text-anchor="middle" x="88" y="-298.2" font-family="Sans-Serif" font-size="13.00" fill="#2d3436">hsuadhususahdusahdu</text>
</a>
</g>
</g>
<!-- xablau3 -->
<g id="node3" class="node">
<title>xablau3</title>
<g id="a_node3"><a xlink:href="xablau" xlink:title="hsuadhususahdusahdu" target="_blank">
<image xlink:href="C:\Python312\Lib\site-packages\resources/aws/analytics\glue.png" width="100.8px" height="100.8px" preserveAspectRatio="xMinYMin meet" x="37.6" y="-184.3"/>
<text text-anchor="middle" x="88" y="-69.65" font-family="Sans-Serif" font-size="13.00" fill="#2d3436">hsuadhususahdusahdu</text>
</a>
</g>
</g>
<!-- xablau&#45;&gt;xablau3 -->
<g id="edge1" class="edge">
<title>xablau&#45;&gt;xablau3</title>
<path fill="none" stroke="#7b8894" d="M88,-294.19C88,-294.19 88,-213.72 88,-213.72"/>
<polygon fill="#7b8894" stroke="#7b8894" points="91.5,-213.72 88,-203.72 84.5,-213.72 91.5,-213.72"/>
</g>
<!-- xablau2 -->
<g id="node2" class="node">
<title>xablau2</title>
<g id="a_node2"><a xlink:href="xablau" xlink:title="hsuadhususahdusahdu" target="_blank">
<image xlink:href="C:\Python312\Lib\site-packages\resources/aws/analytics\glue.png" width="100.8px" height="100.8px" preserveAspectRatio="xMinYMin meet" x="181.6" y="-412.85"/>
<text text-anchor="middle" x="232" y="-298.2" font-family="Sans-Serif" font-size="13.00" fill="#2d3436">hsuadhususahdusahdu</text>
</a>
</g>
</g>
<!-- xablau4 -->
<g id="node4" class="node">
<title>xablau4</title>
<g id="a_node4"><a xlink:href="xablau" xlink:title="hsuadhususahdusahdu" target="_blank">
<image xlink:href="C:\Python312\Lib\site-packages\resources/aws/analytics\glue.png" width="100.8px" height="100.8px" preserveAspectRatio="xMinYMin meet" x="181.6" y="-184.3"/>
<text text-anchor="middle" x="232" y="-69.65" font-family="Sans-Serif" font-size="13.00" fill="#2d3436">hsuadhususahdusahdu</text>
</a>
</g>
</g>
<!-- xablau5 -->
<g id="node5" class="node">
<title>xablau5</title>
<g id="a_node5"><a xlink:href="xablau" xlink:title="hsuadhususahdusahdu" target="_blank">
<image xlink:href="C:\Python312\Lib\site-packages\resources/aws/analytics\glue.png" width="100.8px" height="100.8px" preserveAspectRatio="xMinYMin meet" x="325.6" y="-184.3"/>
<text text-anchor="middle" x="376" y="-69.65" font-family="Sans-Serif" font-size="13.00" fill="#2d3436">hsuadhususahdusahdu</text>
</a>
</g>
</g>
<!-- xablau6 -->
<g id="node6" class="node">
<title>xablau6</title>
<g id="a_node6"><a xlink:href="xablau" xlink:title="hsuadhususahdusahdu" target="_blank">
<image xlink:href="C:\Python312\Lib\site-packages\resources/aws/analytics\glue.png" width="100.8px" height="100.8px" preserveAspectRatio="xMinYMin meet" x="469.6" y="-184.3"/>
<text text-anchor="middle" x="520" y="-69.65" font-family="Sans-Serif" font-size="13.00" fill="#2d3436">hsuadhususahdusahdu</text>
</a>
</g>
</g>
<!-- xablau7 -->
<g id="node7" class="node">
<title>xablau7</title>
<g id="a_node7"><a xlink:href="xablau" xlink:title="hsuadhususahdusahdu" target="_blank">
<image xlink:href="C:\Python312\Lib\site-packages\resources/aws/analytics\glue.png" width="100.8px" height="100.8px" preserveAspectRatio="xMinYMin meet" x="613.6" y="-184.3"/>
<text text-anchor="middle" x="664" y="-69.65" font-family="Sans-Serif" font-size="13.00" fill="#2d3436">hsuadhususahdusahdu</text>
</a>
</g>
</g>
<!-- xablau8 -->
<g id="node8" class="node">
<title>xablau8</title>
<g id="a_node8"><a xlink:href="xablau" xlink:title="hsuadhususahdusahdu" target="_blank">
<image xlink:href="C:\Python312\Lib\site-packages\resources/aws/analytics\glue.png" width="100.8px" height="100.8px" preserveAspectRatio="xMinYMin meet" x="757.6" y="-184.3"/>
<text text-anchor="middle" x="808" y="-69.65" font-family="Sans-Serif" font-size="13.00" fill="#2d3436">hsuadhususahdusahdu</text>
</a>
</g>
</g>
</g>
</svg>
