<?xml version="1.0" encoding="UTF-8" standalone="no"?>
<!DOCTYPE svg PUBLIC "-//W3C//DTD SVG 1.1//EN"
 "http://www.w3.org/Graphics/SVG/1.1/DTD/svg11.dtd">
<!-- Generated by graphviz version 12.2.0 (20241103.1931)
 -->
<!-- Title: o Pages: 1 -->
<svg width="1084pt" height="1236pt"
 viewBox="0.00 0.00 1084.00 1235.50" xmlns="http://www.w3.org/2000/svg" xmlns:xlink="http://www.w3.org/1999/xlink">
<g id="graph0" class="graph" transform="scale(1 1) rotate(0) translate(144 1091.5)">
<title>o</title>
<polygon fill="white" stroke="none" points="-144,144 -144,-1091.5 940,-1091.5 940,144 -144,144"/>
<text text-anchor="middle" x="398" y="-9.25" font-family="Sans-Serif" font-size="15.00" fill="#2d3436">o</text>
<g id="clust1" class="cluster">
<title>cluster_JP700001&#45;1</title>
<path fill="#e5f5fd" stroke="#aeb6be" d="M20,-35.5C20,-35.5 466.4,-35.5 466.4,-35.5 472.4,-35.5 478.4,-41.5 478.4,-47.5 478.4,-47.5 478.4,-243.5 478.4,-243.5 478.4,-249.5 472.4,-255.5 466.4,-255.5 466.4,-255.5 20,-255.5 20,-255.5 14,-255.5 8,-249.5 8,-243.5 8,-243.5 8,-47.5 8,-47.5 8,-41.5 14,-35.5 20,-35.5"/>
<text text-anchor="middle" x="47.88" y="-240.1" font-family="Sans-Serif" font-size="12.00" fill="#2d3436">JP700001&#45;1</text>
</g>
<g id="clust2" class="cluster">
<title>cluster_JP700001&#45;2</title>
<path fill="#e5f5fd" stroke="#aeb6be" d="M20,-263.5C20,-263.5 466.4,-263.5 466.4,-263.5 472.4,-263.5 478.4,-269.5 478.4,-275.5 478.4,-275.5 478.4,-471.5 478.4,-471.5 478.4,-477.5 472.4,-483.5 466.4,-483.5 466.4,-483.5 20,-483.5 20,-483.5 14,-483.5 8,-477.5 8,-471.5 8,-471.5 8,-275.5 8,-275.5 8,-269.5 14,-263.5 20,-263.5"/>
<text text-anchor="middle" x="47.88" y="-468.1" font-family="Sans-Serif" font-size="12.00" fill="#2d3436">JP700001&#45;2</text>
</g>
<g id="clust3" class="cluster">
<title>cluster_JP700001&#45;3</title>
<path fill="#e5f5fd" stroke="#aeb6be" d="M20,-491.5C20,-491.5 776,-491.5 776,-491.5 782,-491.5 788,-497.5 788,-503.5 788,-503.5 788,-699.5 788,-699.5 788,-705.5 782,-711.5 776,-711.5 776,-711.5 20,-711.5 20,-711.5 14,-711.5 8,-705.5 8,-699.5 8,-699.5 8,-503.5 8,-503.5 8,-497.5 14,-491.5 20,-491.5"/>
<text text-anchor="middle" x="47.88" y="-696.1" font-family="Sans-Serif" font-size="12.00" fill="#2d3436">JP700001&#45;3</text>
</g>
<g id="clust4" class="cluster">
<title>cluster_JP700001&#45;4</title>
<path fill="#e5f5fd" stroke="#aeb6be" d="M20,-719.5C20,-719.5 311.6,-719.5 311.6,-719.5 317.6,-719.5 323.6,-725.5 323.6,-731.5 323.6,-731.5 323.6,-927.5 323.6,-927.5 323.6,-933.5 317.6,-939.5 311.6,-939.5 311.6,-939.5 20,-939.5 20,-939.5 14,-939.5 8,-933.5 8,-927.5 8,-927.5 8,-731.5 8,-731.5 8,-725.5 14,-719.5 20,-719.5"/>
<text text-anchor="middle" x="47.88" y="-924.1" font-family="Sans-Serif" font-size="12.00" fill="#2d3436">JP700001&#45;4</text>
</g>
<!-- a8815072ec964d668f44a3ead3eea951 -->
<g id="node1" class="node">
<title>a8815072ec964d668f44a3ead3eea951</title>
<image xlink:href="C:\Python312\Lib\site-packages\resources/aws/analytics\glue.png" width="100.8px" height="100.8px" preserveAspectRatio="xMinYMin meet" x="38" y="-183.9"/>
<text text-anchor="middle" x="88.4" y="-69.25" font-family="Sans-Serif" font-size="13.00" fill="#2d3436">JP7G001G</text>
</g>
<!-- de88df7ce026431daca94302440f3ed7 -->
<g id="node2" class="node">
<title>de88df7ce026431daca94302440f3ed7</title>
<image xlink:href="C:\Python312\Lib\site-packages\resources/aws/analytics\glue.png" width="100.8px" height="100.8px" preserveAspectRatio="xMinYMin meet" x="192.8" y="-183.9"/>
<text text-anchor="middle" x="243.2" y="-69.25" font-family="Sans-Serif" font-size="13.00" fill="#2d3436">JP7F002G</text>
</g>
<!-- a8815072ec964d668f44a3ead3eea951&#45;&gt;de88df7ce026431daca94302440f3ed7 -->
<g id="edge1" class="edge">
<title>a8815072ec964d668f44a3ead3eea951&#45;&gt;de88df7ce026431daca94302440f3ed7</title>
<path fill="none" stroke="#7b8894" d="M138.66,-133.5C156.05,-133.5 175.54,-133.5 192.93,-133.5"/>
</g>
<!-- 580f42f0c71341da992f48bd2454ab66 -->
<g id="node3" class="node">
<title>580f42f0c71341da992f48bd2454ab66</title>
<image xlink:href="C:\Python312\Lib\site-packages\resources/aws/compute\lambda.png" width="100.8px" height="100.8px" preserveAspectRatio="xMinYMin meet" x="347.6" y="-183.9"/>
<text text-anchor="middle" x="398" y="-69.25" font-family="Sans-Serif" font-size="13.00" fill="#2d3436">JP7S001G</text>
</g>
<!-- de88df7ce026431daca94302440f3ed7&#45;&gt;580f42f0c71341da992f48bd2454ab66 -->
<g id="edge2" class="edge">
<title>de88df7ce026431daca94302440f3ed7&#45;&gt;580f42f0c71341da992f48bd2454ab66</title>
<path fill="none" stroke="#7b8894" d="M293.46,-133.5C310.85,-133.5 330.34,-133.5 347.73,-133.5"/>
</g>
<!-- 9737368d8a0a481494897709e5200c8c -->
<g id="node4" class="node">
<title>9737368d8a0a481494897709e5200c8c</title>
<image xlink:href="C:\Python312\Lib\site-packages\resources/aws/analytics\glue.png" width="100.8px" height="100.8px" preserveAspectRatio="xMinYMin meet" x="38" y="-411.9"/>
<text text-anchor="middle" x="88.4" y="-297.25" font-family="Sans-Serif" font-size="13.00" fill="#2d3436">JP7G003G</text>
</g>
<!-- 8df6e5b3b55648f8a23f5b1e79d99aea -->
<g id="node5" class="node">
<title>8df6e5b3b55648f8a23f5b1e79d99aea</title>
<image xlink:href="C:\Python312\Lib\site-packages\resources/aws/analytics\glue.png" width="100.8px" height="100.8px" preserveAspectRatio="xMinYMin meet" x="192.8" y="-411.9"/>
<text text-anchor="middle" x="243.2" y="-297.25" font-family="Sans-Serif" font-size="13.00" fill="#2d3436">JP7G004G</text>
</g>
<!-- 9737368d8a0a481494897709e5200c8c&#45;&gt;8df6e5b3b55648f8a23f5b1e79d99aea -->
<g id="edge3" class="edge">
<title>9737368d8a0a481494897709e5200c8c&#45;&gt;8df6e5b3b55648f8a23f5b1e79d99aea</title>
<path fill="none" stroke="#7b8894" d="M138.66,-361.5C156.05,-361.5 175.54,-361.5 192.93,-361.5"/>
</g>
<!-- 9b8453b96b9e40abad2a3bb30334dc4c -->
<g id="node6" class="node">
<title>9b8453b96b9e40abad2a3bb30334dc4c</title>
<image xlink:href="C:\Python312\Lib\site-packages\resources/aws/compute\lambda.png" width="100.8px" height="100.8px" preserveAspectRatio="xMinYMin meet" x="347.6" y="-411.9"/>
<text text-anchor="middle" x="398" y="-297.25" font-family="Sans-Serif" font-size="13.00" fill="#2d3436">JP7S002G</text>
</g>
<!-- 8df6e5b3b55648f8a23f5b1e79d99aea&#45;&gt;9b8453b96b9e40abad2a3bb30334dc4c -->
<g id="edge4" class="edge">
<title>8df6e5b3b55648f8a23f5b1e79d99aea&#45;&gt;9b8453b96b9e40abad2a3bb30334dc4c</title>
<path fill="none" stroke="#7b8894" d="M293.46,-361.5C310.85,-361.5 330.34,-361.5 347.73,-361.5"/>
</g>
<!-- 53d06a6c57124cdcb6267008139c4b9d -->
<g id="node7" class="node">
<title>53d06a6c57124cdcb6267008139c4b9d</title>
<image xlink:href="C:\Python312\Lib\site-packages\resources/aws/analytics\glue.png" width="100.8px" height="100.8px" preserveAspectRatio="xMinYMin meet" x="38" y="-639.9"/>
<text text-anchor="middle" x="88.4" y="-525.25" font-family="Sans-Serif" font-size="13.00" fill="#2d3436">JP7G005G</text>
</g>
<!-- 2c78d674e9a94e01942bbc0b0d58089c -->
<g id="node8" class="node">
<title>2c78d674e9a94e01942bbc0b0d58089c</title>
<image xlink:href="C:\Python312\Lib\site-packages\resources/aws/analytics\glue.png" width="100.8px" height="100.8px" preserveAspectRatio="xMinYMin meet" x="192.8" y="-639.9"/>
<text text-anchor="middle" x="243.2" y="-525.25" font-family="Sans-Serif" font-size="13.00" fill="#2d3436">JP7G006G</text>
</g>
<!-- 53d06a6c57124cdcb6267008139c4b9d&#45;&gt;2c78d674e9a94e01942bbc0b0d58089c -->
<g id="edge5" class="edge">
<title>53d06a6c57124cdcb6267008139c4b9d&#45;&gt;2c78d674e9a94e01942bbc0b0d58089c</title>
<path fill="none" stroke="#7b8894" d="M138.66,-589.5C156.05,-589.5 175.54,-589.5 192.93,-589.5"/>
</g>
<!-- 2d7e3b3c726945d7a1c4d516f746552b -->
<g id="node9" class="node">
<title>2d7e3b3c726945d7a1c4d516f746552b</title>
<image xlink:href="C:\Python312\Lib\site-packages\resources/aws/compute\lambda.png" width="100.8px" height="100.8px" preserveAspectRatio="xMinYMin meet" x="347.6" y="-639.9"/>
<text text-anchor="middle" x="398" y="-525.25" font-family="Sans-Serif" font-size="13.00" fill="#2d3436">JP7S003G</text>
</g>
<!-- 2c78d674e9a94e01942bbc0b0d58089c&#45;&gt;2d7e3b3c726945d7a1c4d516f746552b -->
<g id="edge6" class="edge">
<title>2c78d674e9a94e01942bbc0b0d58089c&#45;&gt;2d7e3b3c726945d7a1c4d516f746552b</title>
<path fill="none" stroke="#7b8894" d="M293.46,-589.5C310.85,-589.5 330.34,-589.5 347.73,-589.5"/>
</g>
<!-- 9c70b0c5088c4628a104f13471d31ad3 -->
<g id="node10" class="node">
<title>9c70b0c5088c4628a104f13471d31ad3</title>
<image xlink:href="C:\Python312\Lib\site-packages\resources/aws/compute\lambda.png" width="100.8px" height="100.8px" preserveAspectRatio="xMinYMin meet" x="502.4" y="-639.9"/>
<text text-anchor="middle" x="552.8" y="-525.25" font-family="Sans-Serif" font-size="13.00" fill="#2d3436">JP7S004G</text>
</g>
<!-- 2d7e3b3c726945d7a1c4d516f746552b&#45;&gt;9c70b0c5088c4628a104f13471d31ad3 -->
<g id="edge7" class="edge">
<title>2d7e3b3c726945d7a1c4d516f746552b&#45;&gt;9c70b0c5088c4628a104f13471d31ad3</title>
<path fill="none" stroke="#7b8894" d="M448.26,-589.5C465.65,-589.5 485.14,-589.5 502.53,-589.5"/>
</g>
<!-- 653d22c4cdd4476388c7b4341391a5b0 -->
<g id="node11" class="node">
<title>653d22c4cdd4476388c7b4341391a5b0</title>
<image xlink:href="C:\Python312\Lib\site-packages\resources/aws/compute\lambda.png" width="100.8px" height="100.8px" preserveAspectRatio="xMinYMin meet" x="657.2" y="-639.9"/>
<text text-anchor="middle" x="707.6" y="-525.25" font-family="Sans-Serif" font-size="13.00" fill="#2d3436">JP7S005G</text>
</g>
<!-- 9c70b0c5088c4628a104f13471d31ad3&#45;&gt;653d22c4cdd4476388c7b4341391a5b0 -->
<g id="edge8" class="edge">
<title>9c70b0c5088c4628a104f13471d31ad3&#45;&gt;653d22c4cdd4476388c7b4341391a5b0</title>
<path fill="none" stroke="#7b8894" d="M603.06,-589.5C620.45,-589.5 639.94,-589.5 657.33,-589.5"/>
</g>
<!-- 8f544d2e30fb4cd09ba6f9faba2f7ae3 -->
<g id="node12" class="node">
<title>8f544d2e30fb4cd09ba6f9faba2f7ae3</title>
<image xlink:href="C:\Python312\Lib\site-packages\resources/aws/compute\lambda.png" width="100.8px" height="100.8px" preserveAspectRatio="xMinYMin meet" x="38" y="-867.9"/>
<text text-anchor="middle" x="88.4" y="-753.25" font-family="Sans-Serif" font-size="13.00" fill="#2d3436">JP7S006G</text>
</g>
<!-- ebbde228f5c5420cae35d6b4476e7494 -->
<g id="node13" class="node">
<title>ebbde228f5c5420cae35d6b4476e7494</title>
<image xlink:href="C:\Python312\Lib\site-packages\resources/aws/compute\lambda.png" width="100.8px" height="100.8px" preserveAspectRatio="xMinYMin meet" x="192.8" y="-867.9"/>
<text text-anchor="middle" x="243.2" y="-753.25" font-family="Sans-Serif" font-size="13.00" fill="#2d3436">JP7S007G</text>
</g>
<!-- 8f544d2e30fb4cd09ba6f9faba2f7ae3&#45;&gt;ebbde228f5c5420cae35d6b4476e7494 -->
<g id="edge9" class="edge">
<title>8f544d2e30fb4cd09ba6f9faba2f7ae3&#45;&gt;ebbde228f5c5420cae35d6b4476e7494</title>
<path fill="none" stroke="#7b8894" d="M138.66,-817.5C156.05,-817.5 175.54,-817.5 192.93,-817.5"/>
</g>
</g>
</svg>
